HIERARCHY
ROOT Hips
{
  OFFSET -32.5998 29.0326 120.673
  CHANNELS 6 Xposition Yposition Zposition Zrotation Xrotation Yrotation
  JOINT LeftUpLeg
  {
    OFFSET 8.64259 1.95398 -2.38835
    CHANNELS 3 Zrotation Xrotation Yrotation
    JOINT LeftLeg
    {
      OFFSET 43.7702 0 0
      CHANNELS 3 Zrotation Xrotation Yrotation
      JOINT LeftFoot
      {
        OFFSET 40.6238 0 0
        CHANNELS 3 Zrotation Xrotation Yrotation
        JOINT LeftToeBase
        {
          OFFSET 12.7242 0 0
          CHANNELS 3 Zrotation Xrotation Yrotation
          End Site
          {
            OFFSET 0 0 0
          }
        }
      }
    }
  }
  JOINT RightUpLeg
  {
    OFFSET -8.2249 1.95398 -2.59336
    CHANNELS 3 Zrotation Xrotation Yrotation
    JOINT RightLeg
    {
      OFFSET 43.5653 0 0
      CHANNELS 3 Zrotation Xrotation Yrotation
      JOINT RightFoot
      {
        OFFSET 40.6238 0 0
        CHANNELS 3 Zrotation Xrotation Yrotation
        JOINT RightToeBase
        {
          OFFSET 12.7242 0 0
          CHANNELS 3 Zrotation Xrotation Yrotation
          End Site
          {
            OFFSET 0 0 0
          }
        }
      }
    }
  }
  JOINT Spine
  {
    OFFSET 0.165834 0.87714 6.61349
    CHANNELS 3 Zrotation Xrotation Yrotation
    JOINT Spine1
    {
      OFFSET 7.38963 1.71661e-005 0
      CHANNELS 3 Zrotation Xrotation Yrotation
      JOINT Spine2
      {
        OFFSET 11.9445 1.14441e-005 0
        CHANNELS 3 Zrotation Xrotation Yrotation
        JOINT Spine3
        {
          OFFSET 14.7254 4.19617e-005 0
          CHANNELS 3 Zrotation Xrotation Yrotation
          JOINT Spine4
          {
            OFFSET 10.9679 0 0
            CHANNELS 3 Zrotation Xrotation Yrotation
            JOINT RightShoulder
            {
              OFFSET 2.46616 -1.6653 3.69651
              CHANNELS 3 Zrotation Xrotation Yrotation
              JOINT RightArm
              {
                OFFSET 13.0012 0 0
                CHANNELS 3 Zrotation Xrotation Yrotation
                JOINT RightForeArm
                {
                  OFFSET 28.7848 1.62311e-005 0
                  CHANNELS 3 Zrotation Xrotation Yrotation
                  JOINT RightHand
                  {
                    OFFSET 26.5688 1.62095e-005 0
                    CHANNELS 3 Zrotation Xrotation Yrotation
                    End Site
                    {
                      OFFSET 0 0 0
                    }
                  }
                }
              }
            }
            JOINT LeftShoulder
            {
              OFFSET 2.38034 -1.29275 -3.7523
              CHANNELS 3 Zrotation Xrotation Yrotation
              JOINT LeftArm
              {
                OFFSET 16.3182 6.07031e-005 0
                CHANNELS 3 Zrotation Xrotation Yrotation
                JOINT LeftForeArm
                {
                  OFFSET 27.0901 0 0
                  CHANNELS 3 Zrotation Xrotation Yrotation
                  JOINT LeftHand
                  {
                    OFFSET 24.5451 1.51738e-005 0
                    CHANNELS 3 Zrotation Xrotation Yrotation
                    End Site
                    {
                      OFFSET 0 0 0
                    }
                  }
                }
              }
            }
            JOINT Neck
            {
              OFFSET 5.0226 -0.0266342 0
              CHANNELS 3 Zrotation Xrotation Yrotation
              JOINT Head
              {
                OFFSET 6.69364 2.86102e-005 0
                CHANNELS 3 Zrotation Xrotation Yrotation
                End Site
                {
                  OFFSET 0 0 0
                }
              }
            }
          }
        }
      }
    }
  }
}
MOTION
Frames:	15
Frame Time:	0.0416667
33.8073 100.523 28.8704 -150.914 -79.9526 -151.775 -173.768 -3.65835 88.3879 -19.1673 8.21951 -0.154418 75.113 7.74754 -3.14456 13.4917 -10.9139 7.08035 171.74 -7.70156 87.568 -9.34881 -18.1579 -1.10221 68.8193 -6.90762 -1.45757 24.2891 1.14022 3.10084 0.310136 7.5872 -90.0275 11.6999 0.603991 -0.11813 0.0291251 0.5982 -0.144602 -22.5072 0.611564 0.0688672 -2.49451 0.611565 0.0688618 92.1814 -28.1376 -103.022 44.7955 -22.3439 -5.9193 -13.9175 -16.8471 -25.9454 -12.5837 -0.589311 0.267442 -87.1819 -50.0731 82.9652 -22.7504 29.6041 -16.1583 5.92495 -5.71412 -9.27581 0.648514 -0.0786974 -3.95309 5.14514 -0.723528 -0.791508 -12.6327 -0.750601 2.25729 
33.7334 100.309 28.5757 -148.197 -80.7116 -149.113 -174.413 -2.46946 87.9411 -19.5697 8.99209 0.292358 75.2941 8.21095 -1.58528 14.2351 -10.9295 7.77331 172.385 -6.89248 87.9115 -9.47899 -21.6521 -1.5953 68.4983 -7.20748 -4.33332 24.624 1.45137 1.52544 0.355416 7.43179 -90 12.0107 0.706679 -0.0768646 0.339971 0.702609 -0.107893 -22.1967 0.6971 0.139079 -2.18405 0.697108 0.139091 92.089 -28.4337 -103.112 45.0493 -22.5214 -5.18744 -13.4067 -14.5889 -26.4657 -12.7194 -0.253076 -2.96611 -87.4517 -50.1171 82.5674 -22.8932 29.5382 -15.4366 6.2291 -4.11804 -9.62386 -2.26339 -0.0786915 -4.01507 3.82889 -0.913594 -1.40623 -11.7887 -0.895397 3.20165 
33.6815 100.318 28.4746 -149.234 -80.4187 -150.085 -174.273 -2.71338 88.0856 -19.6516 8.9736 0.232894 75.5003 8.32314 -1.62263 14.4149 -11.0372 8.11221 172.393 -7.32701 87.9949 -9.17753 -21.6583 -1.58757 68.4019 -7.23332 -4.57095 24.446 1.45105 1.79578 0.38534 7.48258 -89.9995 11.9092 0.766516 -0.0813609 0.238486 0.762192 -0.115025 -22.2984 0.75553 0.152786 -2.28579 0.755532 0.152778 92.0906 -28.4901 -103.09 44.9667 -22.5654 -5.23074 -13.7435 -15.0954 -26.7583 -12.1411 -0.303261 -2.3304 -87.5638 -49.8333 82.35 -23.0832 29.4214 -15.584 6.37386 -3.7394 -9.67748 -2.91802 -0.078573 -5.09824 3.79709 -0.807949 -1.07901 -11.4456 -0.791771 2.55416 
33.6375 100.315 28.3938 -149.091 -80.3481 -150.002 -174.345 -2.78148 88.0172 -19.528 8.9141 0.298065 75.3381 8.24673 -1.50949 14.4361 -10.7415 7.65232 172.409 -7.23136 87.9911 -9.40749 -21.9582 -1.62838 68.4075 -7.21895 -4.69451 24.3556 1.64718 1.2613 0.390057 7.48339 -90.0241 11.9078 0.764308 -0.13023 0.23707 0.757838 -0.163755 -22.2999 0.768106 0.105513 -2.28724 0.768114 0.105513 92.305 -28.2106 -102.743 45.0108 -22.6393 -5.19821 -14.6546 -16.4294 -27.3094 -10.9989 -0.190588 -3.31283 -87.6112 -50.6225 82.4156 -22.4071 29.4682 -15.5143 6.27373 -4.26061 -9.97686 -2.61852 -0.0786015 -4.85982 3.96424 -0.847549 -0.781497 -11.977 -0.904824 2.70769 
33.6409 100.329 28.2994 -149.18 -80.4242 -150.114 -174.462 -2.63411 87.9169 -19.5886 8.84906 0.392669 75.3999 8.23261 -1.67172 14.1452 -11.0086 7.82017 172.358 -6.90421 87.921 -9.77887 -21.4682 -1.55589 68.5709 -7.18534 -4.11517 24.5623 1.473 1.54371 0.364353 7.47444 -90.0257 11.9256 0.712386 -0.128134 0.254826 0.706055 -0.159377 -22.2819 0.717961 0.0919078 -2.26925 0.717957 0.0918957 92.3928 -28.0659 -102.61 45.1948 -22.61 -5.31667 -15.6034 -17.8916 -27.7725 -9.75025 -0.161619 -3.41067 -87.5402 -50.8454 82.56 -21.9907 29.7934 -15.698 6.06283 -4.64467 -9.81655 -2.76594 -0.0785977 -4.89213 4.4272 -0.812064 -0.648187 -12.3468 -0.903672 2.76978 
33.6012 100.328 28.2982 -149.381 -80.2058 -150.305 -174.355 -2.81371 88.0004 -19.6311 8.89279 0.310873 75.287 8.20161 -1.4417 14.4677 -10.7143 7.63652 172.423 -7.25297 87.9719 -9.54002 -21.6421 -1.65059 68.511 -7.21821 -4.39342 24.3606 1.50206 1.75016 0.376386 7.4977 -90.0277 11.8791 0.735511 -0.133996 0.208355 0.728895 -0.166254 -22.3285 0.741767 0.0932627 -2.31582 0.741775 0.0932609 92.3148 -28.0591 -102.774 45.299 -22.4773 -5.31921 -15.243 -17.483 -27.4269 -9.48298 -0.108614 -4.04129 -87.5609 -50.6298 82.4922 -22.2617 29.7153 -15.7449 6.13182 -4.47211 -9.80824 -2.76456 -0.0785895 -4.9612 4.43148 -0.880345 -0.79501 -12.0055 -0.94764 2.91672 
33.5761 100.336 28.2741 -149.329 -80.1183 -150.296 -174.297 -2.86812 88.0366 -19.6551 8.69752 0.260575 75.3741 8.13287 -1.88307 14.3322 -11.0415 8.04427 172.399 -7.36276 87.9428 -9.44515 -21.7979 -1.67211 68.5496 -7.29878 -4.59025 24.112 1.62699 1.69892 0.357002 7.49828 -90.0131 11.8778 0.703797 -0.101615 0.207041 0.698637 -0.132498 -22.3296 0.701795 0.114605 -2.31698 0.701795 0.114615 92.061 -28.1817 -103.255 45.1745 -21.9745 -5.55219 -15.1408 -17.6802 -26.9356 -9.99606 -0.120755 -3.95454 -87.3928 -50.5268 82.7256 -22.3894 29.6475 -15.625 6.12879 -4.67019 -9.89692 -2.94792 -0.0785679 -5.13934 4.50392 -0.833943 -0.843354 -12.089 -0.901707 3.00782 
33.5326 100.335 28.2598 -150.077 -80.028 -150.921 -174.197 -3.01326 88.222 -19.6433 9.07067 0.252653 75.4151 8.26923 -1.58737 14.2604 -10.9351 7.80603 172.475 -7.449 88.0783 -9.58412 -21.3754 -1.65903 68.5919 -7.24844 -4.25912 24.2262 1.60919 1.58786 0.341741 7.52147 -90.0225 11.8315 0.669082 -0.116106 0.160687 0.663327 -0.14545 -22.3758 0.673046 0.09036 -2.3632 0.673041 0.0903528 92.0969 -28.1801 -103.182 45.0284 -22.4163 -5.48572 -15.3903 -17.9085 -27.4933 -10.3144 -0.225808 -2.74785 -87.26 -50.5831 82.9335 -22.1271 29.7342 -15.8772 6.04086 -4.90756 -9.79535 -2.88805 -0.0785848 -5.0005 4.69174 -0.708419 -0.644104 -11.9365 -0.774687 2.5594 
33.5418 100.319 28.2223 -149.333 -79.9488 -150.262 -174.353 -2.96587 88.0226 -19.6934 8.59156 0.359221 75.3208 8.14758 -1.75486 14.463 -10.6966 7.60299 172.374 -7.18635 87.9482 -9.97708 -22.1241 -1.62819 68.4296 -7.11882 -4.53464 24.7246 1.5077 1.17447 0.382495 7.48551 -90.0259 11.9035 0.748377 -0.132149 0.232715 0.741835 -0.164966 -22.3042 0.75349 0.0988834 -2.29152 0.753498 0.0988895 92.2093 -27.8734 -103.054 45.4559 -22.474 -5.21204 -15.2496 -17.4217 -27.48 -9.59061 -0.132273 -3.75475 -87.5441 -50.74 82.5363 -22.2653 29.5467 -15.6268 6.13004 -4.69499 -9.86203 -2.97516 -0.0785715 -5.11037 4.10741 -0.838367 -0.320118 -11.7283 -0.955349 2.51178 
33.4736 100.336 28.3048 -150.976 -79.4443 -151.575 -174.019 -3.51703 88.5404 -19.9219 9.05341 0.319345 75.6239 8.33592 -1.67458 14.1651 -11.0371 7.88459 172.496 -8.30569 88.233 -9.11088 -21.6272 -1.6597 68.1714 -7.04398 -4.22144 24.6431 1.4406 1.53165 0.376918 7.52456 -90.0846 11.8257 0.709804 -0.244391 0.154862 0.698363 -0.275405 -22.3818 0.750433 -0.019751 -2.3692 0.750435 -0.0197576 92.3581 -27.6558 -102.819 45.4667 -22.6356 -5.43492 -14.8761 -16.9229 -27.1775 -9.63537 -0.143443 -3.63277 -87.4901 -51.1073 82.6792 -21.7668 29.7949 -15.8662 5.94174 -5.04367 -9.75351 -3.16007 -0.0785696 -5.12566 3.9678 -0.617484 0.0703807 -11.7992 -0.809467 2.53524 
33.4778 100.315 28.2999 -150.485 -79.2068 -151.458 -174.219 -3.79082 88.0644 -19.7294 8.41502 0.333025 75.4533 8.24567 -1.87554 14.5151 -10.9201 8.01409 172.098 -7.76368 87.7415 -10.4156 -22.9255 -1.59427 68.525 -7.33114 -5.51685 24.7199 1.28564 1.95161 0.387535 7.49563 -90.0118 11.8833 0.765148 -0.105335 0.212549 0.75977 -0.138911 -22.3244 0.761427 0.12951 -2.31173 0.761425 0.129507 92.123 -28.0568 -103.171 45.4555 -22.3497 -5.21357 -14.2471 -15.6246 -27.077 -10.6426 -0.285059 -2.15434 -87.3447 -50.5137 82.795 -22.1981 29.6887 -15.8866 6.03988 -4.78166 -9.72416 -3.37212 -0.078523 -5.49162 3.58175 -0.598262 -0.519663 -11.84 -0.722264 2.96498 
33.39 100.289 28.3811 -150.976 -78.9412 -152.031 -174.053 -4.16154 88.1637 -19.7009 8.76537 0.178797 75.442 8.43615 -1.52757 14.6048 -10.8778 8.0276 172.126 -7.8989 87.7048 -10.8769 -22.6507 -1.72303 68.9246 -7.50045 -5.1954 24.5449 1.45281 1.64045 0.386708 7.44903 -90.0187 11.9765 0.760054 -0.119627 0.305729 0.754067 -0.152968 -22.2312 0.760864 0.114343 -2.21855 0.76087 0.114348 92.2757 -27.9154 -102.903 45.511 -22.3469 -5.48499 -13.9806 -15.5827 -26.5641 -10.8729 -0.252297 -2.57935 -87.573 -50.5976 82.4686 -22.2123 29.9183 -15.6533 5.6875 -5.97867 -9.99482 -2.70994 -0.0877168 -5.23171 2.88634 -0.381918 -0.160803 -12.1385 -0.576567 2.93749 
33.2259 100.296 28.5514 -152.359 -78.2166 -153.343 -173.819 -5.0576 88.4557 -19.7565 8.7918 0.170169 75.6726 8.51029 -1.91281 14.7139 -10.6532 7.76096 172.092 -8.62781 87.6905 -11.3092 -22.267 -1.82649 69.1994 -7.4782 -4.34014 24.8607 1.4592 1.1317 0.353923 7.4058 -90.0708 12.063 0.670222 -0.214659 0.392219 0.660126 -0.243956 -22.1443 0.703747 -0.00330003 -2.13168 0.70375 -0.00329744 92.178 -27.5635 -103.226 45.6145 -21.8761 -4.98544 -14.7811 -16.7567 -27.2001 -11.1556 -0.424821 -0.783254 -87.4628 -51.0283 82.7059 -21.3833 31.4373 -15.6463 4.97785 -7.28151 -10.0844 -2.46398 -0.0898803 -5.1833 1.97566 0.0402406 0.834251 -12.7393 -0.306077 2.62352 
33.1056 100.275 28.744 -155.154 -77.2479 -156.128 -173.616 -6.29551 88.6526 -19.9009 9.24442 0.204788 75.8616 8.78589 -1.63723 15.2725 -10.6914 8.33868 171.793 -9.71439 87.4988 -11.7255 -22.394 -1.81788 69.6358 -7.85589 -4.66114 24.5926 1.47826 1.4787 0.354143 7.42092 -90.0937 12.0329 0.659907 -0.258985 0.362084 0.647866 -0.287779 -22.1744 0.707225 -0.0486772 -2.16174 0.707233 -0.048672 92.3877 -27.5902 -102.78 45.758 -21.2985 -4.95257 -15.199 -17.1473 -27.4202 -11.0352 -0.366319 -1.37519 -87.7033 -51.2518 82.3871 -21.0372 31.3663 -15.6976 4.97599 -7.6432 -10.5625 -1.91853 -0.0901221 -5.20497 1.39546 -0.00167362 1.00982 -12.7955 -0.417964 3.19707 
32.9458 100.228 28.9061 -157.544 -75.7831 -158.522 -173.277 -7.79443 88.9577 -20.419 8.8285 0.217189 76.4224 8.99575 -2.39053 15.18 -10.7324 8.32087 171.532 -11.0792 87.2526 -12.5182 -22.4597 -1.97501 70.2331 -8.2723 -4.76137 24.3688 1.45714 1.89223 0.345602 7.46449 -90.1193 11.9458 0.631021 -0.306035 0.274976 0.616945 -0.333517 -22.2614 0.693815 -0.102227 -2.24871 0.693826 -0.102229 92.2093 -27.6374 -103.135 45.7428 -20.8361 -4.79045 -14.9472 -17.4449 -26.5456 -10.9152 -0.314763 -1.90018 -87.7006 -51.5696 82.4454 -20.8222 31.3046 -15.4284 4.76057 -8.64041 -10.6692 -1.77672 -0.0908044 -4.81607 0.27384 0.35303 1.79574 -12.4035 -0.12435 2.75821 
